<?xml version="1.0" encoding="utf-8"?>
<!-- Generator: Adobe Illustrator 25.0.0, SVG Export Plug-In . SVG Version: 6.00 Build 0)  -->
<svg version="1.1" id="Camada_1" xmlns="http://www.w3.org/2000/svg" xmlns:xlink="http://www.w3.org/1999/xlink" x="0px" y="0px"
	 viewBox="0 0 349.3 127.5" style="enable-background:new 0 0 349.3 127.5;" xml:space="preserve">
<style type="text/css">
	.st0{fill:#FFFFFF;}
	.st1{fill:#FFFFFF;stroke:#F1F1F1;stroke-miterlimit:10;}
	.st2{fill:#0085B5;}
	.st3{fill:none;stroke:#F1F1F1;stroke-miterlimit:10;}
</style>
<g>
	<circle class="st0" cx="22.3" cy="69.8" r="5"/>
	<circle class="st0" cx="102.1" cy="69.8" r="5"/>
	<path class="st0" d="M61.2,48.5c-3.5,0-6.5,2.3-7.5,5.4h-12c-1-3.3-4-5.6-7.5-5.6c-4.4,0-7.9,3.5-7.9,7.9c0,3.6,2.4,6.6,5.6,7.5v13
		c-3.3,1-5.6,4-5.6,7.6c0,4.3,3.5,7.9,7.9,7.9s7.9-3.5,7.9-7.9c0-3.6-2.4-6.6-5.6-7.6v-13C39,63,41,61,41.8,58.4h11.8
		c0.9,3.3,4,5.8,7.6,5.8c4.3,0,7.9-3.5,7.9-7.9C69.1,52,65.6,48.5,61.2,48.5z"/>
	<path class="st0" d="M78.6,60.2v-12c3.3-1,5.6-4,5.6-7.5c0-4.3-3.5-7.9-7.9-7.9c-3.6,0-6.6,2.4-7.6,5.6h-13c-1-3.3-4-5.6-7.5-5.6
		c-4.3,0-7.9,3.5-7.9,7.9s3.5,7.9,7.9,7.9c3.6,0,6.6-2.4,7.5-5.6h13c0.8,2.5,2.8,4.5,5.3,5.3V60c-3.3,0.9-5.8,4-5.8,7.6
		c0,4.3,3.5,7.9,7.9,7.9S84,72,84,67.6C84.1,64.1,81.8,61.2,78.6,60.2z"/>
	<path class="st1" d="M45.8,91"/>
	<path class="st0" d="M50.3,91.3v-13c3.3-1,5.6-4,5.6-7.6c0-4.3-3.5-7.9-7.9-7.9s-7.9,3.5-7.9,7.9c0,3.6,2.4,6.6,5.6,7.6v13
		c-3.3,1-5.6,4-5.6,7.6c0,4.3,3.5,7.9,7.9,7.9s7.9-3.5,7.9-7.9C55.9,95.3,53.5,92.3,50.3,91.3z"/>
	<path class="st0" d="M93,77.1v-13c3.3-1,5.6-4,5.6-7.5c0-4.3-3.5-7.9-7.9-7.9s-7.9,3.5-7.9,7.9c0,3.6,2.4,6.6,5.6,7.5v13
		c-2.5,0.8-4.5,2.8-5.3,5.3H71.4c-0.9-3.3-4-5.8-7.6-5.8c-4.3,0-7.9,3.5-7.9,7.9s3.5,7.9,7.9,7.9c3.5,0,6.5-2.3,7.5-5.4h12
		c1,3.3,4,5.6,7.6,5.6c4.3,0,7.9-3.5,7.9-7.9C98.7,81.1,96.3,78.1,93,77.1z"/>
</g>
<g>
	<g>
		<path class="st2" d="M132.4,51.8c0.1-3,0.6-5.7,1.6-8.2c1-2.5,2.4-4.6,4.3-6.3c1.9-1.8,4.2-3.1,7-4.1c2.8-1,6-1.5,9.6-1.5
			c4.3,0,7.9,0.6,10.7,1.7c2.8,1.1,5,2.5,6.7,4c1.7,1.6,2.8,3.2,3.5,4.8s1.1,3.1,1.1,4.2c0.1,0.6-0.1,1.1-0.6,1.5s-0.9,0.6-1.4,0.6
			h-6c-0.6,0-1-0.1-1.3-0.4s-0.6-0.6-0.7-0.9c-0.1-0.2-0.4-0.6-0.8-1.3s-1.1-1.4-2-2.1s-2.1-1.4-3.6-1.9S157.2,41,155,41
			c-3.7,0-6.7,1-8.9,3s-3.4,4.7-3.6,8.1c-0.1,1.9-0.1,3.9-0.1,6.1c0,2.2,0.1,4.2,0.1,6.1c0.1,4.1,1.3,7.1,3.6,9s5.2,2.8,8.9,2.8
			c1.8,0,3.5-0.2,5.1-0.6s2.9-1,4-1.9c1.1-0.9,2-2.1,2.6-3.5c0.6-1.5,0.9-3.3,0.9-5.4v-0.6h-9.1c-0.6,0-1-0.2-1.4-0.6
			c-0.4-0.4-0.6-0.9-0.6-1.4v-5.3c0-0.5,0.2-1,0.6-1.4c0.4-0.4,0.9-0.6,1.4-0.6h17.1c0.6,0,1,0.2,1.4,0.6c0.4,0.4,0.6,0.9,0.6,1.4
			v8.2c0,3-0.5,5.7-1.4,8.2c-0.9,2.5-2.4,4.7-4.2,6.5c-1.9,1.8-4.2,3.2-7.1,4.2c-2.8,1-6.1,1.5-9.9,1.5c-3.8,0-7.1-0.5-9.8-1.5
			c-2.8-1-5.1-2.4-6.9-4.2c-1.8-1.8-3.2-3.9-4.2-6.4c-1-2.5-1.5-5.2-1.6-8.2c-0.1-0.9-0.1-2-0.1-3.1c0-1.1,0-2.3,0-3.5s0-2.4,0-3.5
			C132.3,53.7,132.4,52.7,132.4,51.8z"/>
		<path class="st2" d="M235,75.3c0.6,0,1,0.2,1.4,0.6c0.4,0.4,0.6,0.9,0.6,1.4v5.3c0,0.6-0.2,1-0.6,1.4c-0.4,0.4-0.9,0.6-1.4,0.6
			h-32.6c-0.6,0-1-0.2-1.4-0.6c-0.4-0.4-0.6-0.9-0.6-1.4V34.5c0-0.5,0.2-1,0.6-1.4c0.4-0.4,0.9-0.6,1.4-0.6h6c0.6,0,1,0.2,1.4,0.6
			c0.4,0.4,0.6,0.9,0.6,1.4v40.8C210.4,75.3,235,75.3,235,75.3z"/>
		<path class="st2" d="M259.5,84.6c-0.5,0-1-0.2-1.4-0.6c-0.4-0.4-0.6-0.9-0.6-1.4V34.5c0-0.5,0.2-1,0.6-1.4
			c0.4-0.4,0.9-0.6,1.4-0.6h6c0.5,0,1,0.2,1.4,0.6c0.4,0.4,0.6,0.9,0.6,1.4v48.1c0,0.6-0.2,1-0.6,1.4c-0.4,0.4-0.9,0.6-1.4,0.6
			H259.5z"/>
		<path class="st2" d="M294.6,84.6c-0.5,0-1-0.2-1.4-0.6c-0.4-0.4-0.6-0.9-0.6-1.4V34.5c0-0.5,0.2-1,0.6-1.4
			c0.4-0.4,0.9-0.6,1.4-0.6h22c3.2,0,5.8,0.5,8,1.5s3.8,2.2,5.1,3.7c1.3,1.5,2.2,3,2.8,4.8c0.6,1.7,0.9,3.3,0.9,4.8s-0.2,2.8-0.6,4
			c-0.4,1.2-0.9,2.2-1.5,3s-1.1,1.5-1.7,2c-0.6,0.5-1,0.9-1.4,1.1c1.5,1,3,2.5,4.2,4.4c1.3,1.9,1.9,4.3,1.9,7.3c0,1.9-0.4,3.8-1,5.6
			c-0.7,1.9-1.7,3.5-3,5s-3,2.7-5,3.6c-2,0.9-4.3,1.4-7,1.4L294.6,84.6L294.6,84.6z M323.2,47.5c0-1.9-0.6-3.3-1.8-4.3
			c-1.2-1-3.1-1.5-5.7-1.5h-13.2v11.5h13.2c2.6,0,4.5-0.5,5.7-1.5S323.2,49.4,323.2,47.5z M302.6,75.3h13.8c2.7,0,4.7-0.6,6-1.8
			c1.3-1.2,1.9-2.7,1.9-4.6c0-1.9-0.7-3.4-2-4.6s-3.3-1.8-5.9-1.8h-13.8L302.6,75.3L302.6,75.3z"/>
	</g>
	<g>
		<path class="st2" d="M144.1,94c-0.1,0.1-0.1,0.2-0.3,0.2c-0.1,0-0.2-0.1-0.4-0.2s-0.3-0.3-0.6-0.4s-0.6-0.3-0.9-0.4
			s-0.8-0.2-1.4-0.2s-1,0.1-1.4,0.2c-0.4,0.2-0.8,0.4-1,0.6c-0.3,0.3-0.5,0.6-0.6,0.9c-0.1,0.3-0.2,0.7-0.2,1.1
			c0,0.5,0.1,0.9,0.3,1.2s0.5,0.6,0.9,0.8c0.4,0.2,0.8,0.4,1.2,0.6c0.4,0.2,0.9,0.3,1.4,0.5s0.9,0.3,1.4,0.5s0.9,0.4,1.2,0.7
			c0.4,0.3,0.6,0.6,0.9,1s0.3,0.9,0.3,1.5c0,0.6-0.1,1.2-0.3,1.8c-0.2,0.6-0.5,1-0.9,1.4c-0.4,0.4-0.9,0.7-1.5,1s-1.3,0.3-2,0.3
			c-1,0-1.8-0.2-2.5-0.5c-0.7-0.3-1.3-0.8-1.9-1.4l0.3-0.5c0.1-0.1,0.2-0.2,0.3-0.2c0.1,0,0.1,0,0.2,0.1c0.1,0.1,0.2,0.2,0.4,0.3
			c0.1,0.1,0.3,0.3,0.5,0.4s0.4,0.3,0.7,0.4c0.3,0.1,0.6,0.2,0.9,0.3c0.3,0.1,0.7,0.1,1.1,0.1c0.6,0,1.1-0.1,1.6-0.3
			s0.9-0.4,1.2-0.7c0.3-0.3,0.6-0.7,0.7-1.1c0.2-0.4,0.2-0.9,0.2-1.4c0-0.5-0.1-1-0.3-1.3c-0.2-0.3-0.5-0.6-0.9-0.8
			c-0.4-0.2-0.8-0.4-1.2-0.6s-0.9-0.3-1.4-0.4c-0.5-0.2-0.9-0.3-1.4-0.5c-0.4-0.2-0.9-0.4-1.2-0.7c-0.4-0.3-0.6-0.6-0.9-1.1
			s-0.3-1-0.3-1.6c0-0.5,0.1-1,0.3-1.4s0.5-0.9,0.8-1.2c0.4-0.3,0.8-0.6,1.4-0.8s1.1-0.3,1.8-0.3c0.8,0,1.5,0.1,2.1,0.4
			s1.2,0.6,1.7,1.1L144.1,94z"/>
		<path class="st2" d="M163.7,107.1h-1.1V92.2h1.1V107.1z"/>
		<path class="st2" d="M190.1,94c-0.1,0.1-0.1,0.2-0.3,0.2c-0.1,0-0.2-0.1-0.4-0.2s-0.3-0.3-0.6-0.4s-0.6-0.3-0.9-0.4
			s-0.8-0.2-1.4-0.2s-1,0.1-1.4,0.2c-0.4,0.2-0.8,0.4-1,0.6c-0.3,0.3-0.5,0.6-0.6,0.9c-0.1,0.3-0.2,0.7-0.2,1.1
			c0,0.5,0.1,0.9,0.3,1.2s0.5,0.6,0.9,0.8c0.4,0.2,0.8,0.4,1.2,0.6c0.4,0.2,0.9,0.3,1.4,0.5s0.9,0.3,1.4,0.5s0.9,0.4,1.2,0.7
			c0.4,0.3,0.6,0.6,0.9,1s0.3,0.9,0.3,1.5c0,0.6-0.1,1.2-0.3,1.8c-0.2,0.6-0.5,1-0.9,1.4c-0.4,0.4-0.9,0.7-1.5,1s-1.3,0.3-2,0.3
			c-1,0-1.8-0.2-2.5-0.5c-0.7-0.3-1.3-0.8-1.9-1.4l0.3-0.5c0.1-0.1,0.2-0.2,0.3-0.2c0.1,0,0.1,0,0.2,0.1c0.1,0.1,0.2,0.2,0.4,0.3
			c0.1,0.1,0.3,0.3,0.5,0.4s0.4,0.3,0.7,0.4c0.3,0.1,0.6,0.2,0.9,0.3c0.3,0.1,0.7,0.1,1.1,0.1c0.6,0,1.1-0.1,1.6-0.3
			s0.9-0.4,1.2-0.7c0.3-0.3,0.6-0.7,0.7-1.1c0.2-0.4,0.2-0.9,0.2-1.4c0-0.5-0.1-1-0.3-1.3c-0.2-0.3-0.5-0.6-0.9-0.8
			c-0.4-0.2-0.8-0.4-1.2-0.6s-0.9-0.3-1.4-0.4c-0.5-0.2-0.9-0.3-1.4-0.5c-0.4-0.2-0.9-0.4-1.2-0.7c-0.4-0.3-0.6-0.6-0.9-1.1
			s-0.3-1-0.3-1.6c0-0.5,0.1-1,0.3-1.4s0.5-0.9,0.8-1.2c0.4-0.3,0.8-0.6,1.4-0.8s1.1-0.3,1.8-0.3c0.8,0,1.5,0.1,2.1,0.4
			s1.2,0.6,1.7,1.1L190.1,94z"/>
		<path class="st2" d="M217.9,92.2v0.9h-5.2v14h-1.1v-14h-5.3v-0.9H217.9z"/>
		<path class="st2" d="M243.8,92.2v0.9h-7.9v6h6.5v0.9h-6.5v6.2h7.9v0.9h-8.9V92.2H243.8z"/>
		<path class="st2" d="M269.1,103.4c0-0.1,0.1-0.2,0.1-0.3c0-0.1,0.1-0.2,0.1-0.3l5.9-10.4c0.1-0.1,0.1-0.2,0.2-0.2
			c0.1,0,0.1,0,0.2,0h0.8v14.9h-1V94.4c0-0.2,0-0.4,0-0.6l-5.9,10.4c-0.1,0.2-0.2,0.3-0.4,0.3H269c-0.2,0-0.3-0.1-0.4-0.3l-6-10.4
			c0,0.2,0,0.4,0,0.6v12.7h-0.9V92.2h0.7c0.1,0,0.2,0,0.2,0s0.1,0.1,0.2,0.2l6,10.4C268.9,103,269,103.2,269.1,103.4z"/>
		<path class="st2" d="M306.4,107.1h-0.8c-0.1,0-0.2,0-0.2-0.1s-0.1-0.1-0.1-0.2l-1.8-4.3h-7.3l-1.8,4.3c0,0.1-0.1,0.1-0.1,0.2
			s-0.1,0.1-0.2,0.1h-0.8l6.1-14.9h1.1L306.4,107.1z M296.4,101.7h6.7l-3-7.5c0-0.1-0.1-0.2-0.1-0.4c0-0.2-0.1-0.3-0.1-0.5
			c0,0.2-0.1,0.3-0.1,0.5s-0.1,0.3-0.1,0.4L296.4,101.7z"/>
		<path class="st2" d="M330.3,94c-0.1,0.1-0.1,0.2-0.3,0.2c-0.1,0-0.2-0.1-0.4-0.2s-0.3-0.3-0.6-0.4s-0.6-0.3-0.9-0.4
			s-0.8-0.2-1.4-0.2s-1,0.1-1.4,0.2c-0.4,0.2-0.8,0.4-1,0.6c-0.3,0.3-0.5,0.6-0.6,0.9s-0.2,0.7-0.2,1.1c0,0.5,0.1,0.9,0.3,1.2
			c0.2,0.3,0.5,0.6,0.9,0.8c0.4,0.2,0.8,0.4,1.2,0.6s0.9,0.3,1.4,0.5s0.9,0.3,1.4,0.5c0.5,0.2,0.9,0.4,1.2,0.7s0.6,0.6,0.9,1
			s0.3,0.9,0.3,1.5c0,0.6-0.1,1.2-0.3,1.8c-0.2,0.6-0.5,1-0.9,1.4c-0.4,0.4-0.9,0.7-1.5,1c-0.6,0.2-1.3,0.3-2,0.3
			c-1,0-1.8-0.2-2.5-0.5c-0.7-0.3-1.3-0.8-1.9-1.4l0.3-0.5c0.1-0.1,0.2-0.2,0.3-0.2c0.1,0,0.1,0,0.2,0.1c0.1,0.1,0.2,0.2,0.4,0.3
			c0.1,0.1,0.3,0.3,0.5,0.4s0.4,0.3,0.7,0.4s0.6,0.2,0.9,0.3c0.3,0.1,0.7,0.1,1.1,0.1c0.6,0,1.1-0.1,1.6-0.3s0.9-0.4,1.2-0.7
			c0.3-0.3,0.6-0.7,0.7-1.1c0.2-0.4,0.2-0.9,0.2-1.4c0-0.5-0.1-1-0.3-1.3c-0.2-0.3-0.5-0.6-0.9-0.8c-0.4-0.2-0.8-0.4-1.2-0.6
			s-0.9-0.3-1.4-0.4c-0.5-0.2-0.9-0.3-1.4-0.5c-0.5-0.2-0.9-0.4-1.2-0.7s-0.6-0.6-0.9-1.1s-0.3-1-0.3-1.6c0-0.5,0.1-1,0.3-1.4
			s0.5-0.9,0.8-1.2c0.4-0.3,0.8-0.6,1.4-0.8c0.5-0.2,1.1-0.3,1.8-0.3c0.8,0,1.5,0.1,2.1,0.4c0.6,0.2,1.2,0.6,1.7,1.1L330.3,94z"/>
	</g>
	<line class="st3" x1="127.7" y1="84.6" x2="342.7" y2="84.6"/>
</g>
<path class="st2" d="M120,120.1h-1.3c-0.7,0-1.3-0.6-1.3-1.3V10.2c0-0.7,0.6-1.4,1.3-1.4h1.3c0.7,0,1.3,0.6,1.3,1.4v108.6
	C121.4,119.5,120.8,120.1,120,120.1z"/>
</svg>
